<svg xmlns="http://www.w3.org/2000/svg" viewBox="0 0 800 520" aria-labelledby="title desc"><defs><linearGradient id="a" x1="0%" y1="0%" x2="100%" y2="100%"><stop offset="0%" stop-color="#10213d"/><stop offset="50%" stop-color="#2f5e8b"/><stop offset="100%" stop-color="#9bc7ef"/></linearGradient><linearGradient id="b" x1="0%" y1="0%" x2="100%" y2="100%"><stop offset="0%" stop-color="#fff0b0"/><stop offset="100%" stop-color="#ffc86f"/></linearGradient></defs><path fill="url(#a)" d="M0 0h800v520H0z"/><circle cx="170" cy="145" r="88" fill="rgba(255,255,255,.14)"/><circle cx="640" cy="120" r="110" fill="rgba(255,255,255,.12)"/><circle cx="620" cy="360" r="150" fill="rgba(255,255,255,.08)"/><path d="M90 350c42-53 87-81 143-81 68 0 127 39 165 97 35 54 94 83 173 83 46 0 87-11 129-34v105H90V350Z" fill="rgba(8,18,33,.34)"/><path d="M240 215c38-50 99-80 153-80 63 0 119 28 167 81-28 28-66 42-115 42-40 0-75-10-111-10s-60 9-94 23c-8-17-8-34 0-56Z" fill="url(#b)" opacity=".92"/><g stroke="rgba(255,255,255,.18)" stroke-width="2"><path d="M0 88h800M0 170h800M0 252h800M0 334h800M0 416h800M114 0v520M228 0v520M342 0v520M456 0v520M570 0v520M684 0v520"/></g><text x="60" y="80" font-size="34" font-family="Arial, sans-serif" fill="#eef6ff">Markdown Image</text><text x="60" y="120" font-size="18" font-family="Arial, sans-serif" fill="rgba(238,246,255,.82)">用于测试博客内图片、灯箱与响应式布局效果</text></svg>